<svg xmlns="http://www.w3.org/2000/svg" version="1.1" viewBox="-5.0 -10.0 110.0 135.0">
 <path d="m79.457 9.1719v1.5352c0 0.33203 0.13672 0.63672 0.35938 0.85938s0.52734 0.35938 0.85938 0.35938 0.63672-0.13672 0.85938-0.35938 0.35938-0.52734 0.35938-0.85938v-2.9922c0-0.33594-0.13672-0.64062-0.35156-0.85938-0.22266-0.22266-0.52734-0.35938-0.86328-0.35938-0.33203 0-0.63672 0.13672-0.85938 0.35938-0.22266 0.21484-0.35937 0.52344-0.35937 0.85938v1.457zm-63.332 70.668c-0.41016-0.71484-0.16406-1.6289 0.55078-2.0391 0.71484-0.41016 1.6289-0.16406 2.0391 0.55078l3.1055 5.3789 10.484-18.16c0.41406-0.71484 1.3281-0.95703 2.043-0.54297 0.71484 0.41406 0.95703 1.3281 0.54297 2.043l-11.777 20.398c-0.12891 0.21875-0.3125 0.41016-0.55078 0.54297-0.71484 0.41016-1.6289 0.16406-2.0391-0.55078l-4.4023-7.6211zm9.3828-23.301c5.5156 0 10.512 2.2383 14.129 5.8516l0.082031 0.089844c2.8672 2.9023 4.8477 6.6719 5.5195 10.875h41.789c1.2227 0 2.332-0.5 3.1406-1.3086 0.80859-0.80078 1.3086-1.9141 1.3086-3.1406v-48.438h-77.43v39.684c3.2422-2.2773 7.1992-3.6172 11.461-3.6172zm19.98 19.816v0.16406c0 5.5117-2.2383 10.508-5.8516 14.121-3.6172 3.6211-8.6133 5.8594-14.129 5.8594-5.5156 0-10.516-2.2383-14.129-5.8516l-0.082031-0.089844c-3.5664-3.6094-5.7695-8.5703-5.7695-14.039 0-5.3398 2.1016-10.195 5.5195-13.781v-50.082c0-1.3594 0.55469-2.5977 1.4492-3.4922 0.89453-0.89453 2.1328-1.4492 3.4922-1.4492h4.6367c0-1.1602 0.47656-2.2148 1.2383-2.9766s1.8203-1.2383 2.9805-1.2383 2.2188 0.47656 2.9805 1.2383l0.09375 0.10547c0.70312 0.75391 1.1406 1.7656 1.1406 2.8711h4.5391c0-1.1562 0.47656-2.2109 1.2422-2.9727 0.75781-0.76563 1.8164-1.2422 2.9766-1.2422s2.2188 0.47656 2.9805 1.2383l0.09375 0.10547c0.70312 0.75391 1.1406 1.7656 1.1406 2.8711h21.449c0-1.1562 0.47656-2.2109 1.2422-2.9727 0.75781-0.76563 1.8164-1.2422 2.9766-1.2422 1.1562 0 2.2109 0.47656 2.9727 1.2383 0.76953 0.76953 1.2422 1.8242 1.2422 2.9766h4.5391c0-1.1562 0.47656-2.2109 1.2422-2.9727 0.75781-0.76563 1.8164-1.2422 2.9766-1.2422 1.1562 0 2.2109 0.47656 2.9727 1.2383 0.76953 0.76953 1.2422 1.8242 1.2422 2.9766h4.6406c1.3594 0 2.5938 0.55859 3.4883 1.4492 0.89844 0.90234 1.457 2.1367 1.457 3.4922v56.254c0 2.043-0.83984 3.9062-2.1914 5.2578-1.3438 1.3516-3.207 2.1914-5.2578 2.1914h-41.539zm-7.9727-11.844c-3.0703-3.0703-7.3203-4.9727-12.008-4.9727-4.6328 0-8.8398 1.8594-11.902 4.8672l-0.027344 0.023438-0.082031 0.082031c-3.0742 3.0664-4.9727 7.3164-4.9727 12.008 0 4.6562 1.8711 8.8711 4.8984 11.938l0.074219 0.070313c3.0703 3.0703 7.3203 4.9727 12.008 4.9727s8.9336-1.9023 12.008-4.9727c3.0703-3.0703 4.9727-7.3164 4.9727-12.008 0-0.50781-0.019531-1.0117-0.066406-1.5078v-0.003907l-0.003907-0.035156c-0.36328-4.0391-2.1406-7.6719-4.8281-10.391l-0.074219-0.070312zm42.242-8.1875c1.918 0 3.6641 0.78516 4.9258 2.0469l0.085937 0.09375c1.2109 1.2539 1.9609 2.9648 1.9609 4.832 0 1.918-0.78125 3.6641-2.043 4.9258-1.2617 1.2617-3.0078 2.043-4.9258 2.043s-3.6641-0.78516-4.9258-2.0469c-1.2617-1.2617-2.0469-3.0039-2.0469-4.9219 0-1.9141 0.78516-3.6562 2.0469-4.9219 1.2617-1.2656 3.0078-2.0508 4.9258-2.0508zm0 3c-1.0898 0-2.0859 0.44922-2.8047 1.168-0.71875 0.71484-1.168 1.7109-1.168 2.8047 0 1.0898 0.44922 2.0859 1.168 2.8047s1.7109 1.168 2.8047 1.168c1.0898 0 2.0859-0.44922 2.8047-1.1641 0.71875-0.71875 1.1641-1.7109 1.1641-2.8047 0-1.0586-0.41797-2.0273-1.0977-2.7422l-0.070312-0.0625c-0.71875-0.71875-1.7109-1.168-2.8008-1.168zm-2.6641-18.824h5.3242c1.1875 0 2.2656 0.48438 3.043 1.2656 0.78125 0.78125 1.2656 1.8594 1.2656 3.043v5.3242c0 1.1875-0.48437 2.2656-1.2656 3.043-0.78125 0.78125-1.8594 1.2656-3.043 1.2656h-5.3242c-1.1875 0-2.2656-0.48438-3.043-1.2656-0.78125-0.78125-1.2656-1.8594-1.2656-3.043v-5.3242c0-1.1875 0.48438-2.2656 1.2656-3.043 0.78125-0.78125 1.8594-1.2656 3.043-1.2656zm5.3242 3h-5.3242c-0.35938 0-0.6875 0.14844-0.92188 0.38672-0.23438 0.23438-0.38672 0.56641-0.38672 0.92188v5.3242c0 0.35938 0.14844 0.6875 0.38672 0.92188 0.23438 0.23437 0.56641 0.38672 0.92188 0.38672h5.3242c0.35938 0 0.6875-0.14844 0.92188-0.38672 0.23438-0.23438 0.38672-0.56641 0.38672-0.92188v-5.3242c0-0.35938-0.14844-0.6875-0.38672-0.92188-0.23438-0.23438-0.56641-0.38672-0.92188-0.38672zm-23.512 12.824h5.3242c1.1875 0 2.2656 0.48828 3.043 1.2656 0.78125 0.78125 1.2656 1.8594 1.2656 3.043v5.3242c0 1.1875-0.48437 2.2656-1.2656 3.043-0.78125 0.78125-1.8594 1.2656-3.043 1.2656h-5.3242c-1.1875 0-2.2656-0.48438-3.043-1.2656-0.77734-0.77734-1.2656-1.8594-1.2656-3.043v-5.3242c0-1.1875 0.48828-2.2656 1.2656-3.043 0.77734-0.77734 1.8555-1.2656 3.043-1.2656zm5.3242 3h-5.3242c-0.35547 0-0.68359 0.14844-0.92188 0.38672-0.23828 0.23828-0.38672 0.56641-0.38672 0.92187v5.3242c0 0.35938 0.14844 0.6875 0.38672 0.92188 0.23438 0.23438 0.56641 0.38672 0.92188 0.38672h5.3242c0.35938 0 0.6875-0.14844 0.92188-0.38672 0.23438-0.23438 0.38672-0.56641 0.38672-0.92188v-5.3242c0-0.35937-0.14844-0.6875-0.38672-0.92187-0.23828-0.23828-0.56641-0.38672-0.92188-0.38672zm-5.3242-18.824h5.3242c1.1875 0 2.2656 0.48438 3.043 1.2656 0.78125 0.78125 1.2656 1.8594 1.2656 3.043v5.3242c0 1.1875-0.48437 2.2656-1.2656 3.043-0.78125 0.78125-1.8594 1.2656-3.043 1.2656h-5.3242c-1.1875 0-2.2656-0.48438-3.043-1.2656-0.78125-0.78125-1.2656-1.8594-1.2656-3.043v-5.3242c0-1.1875 0.48828-2.2656 1.2656-3.043 0.78125-0.78125 1.8594-1.2656 3.043-1.2656zm5.3242 3h-5.3242c-0.35938 0-0.6875 0.14844-0.92188 0.38672-0.23828 0.23828-0.38672 0.56641-0.38672 0.92188v5.3242c0 0.35938 0.14844 0.6875 0.38672 0.92188 0.23438 0.23437 0.56641 0.38672 0.92188 0.38672h5.3242c0.35938 0 0.6875-0.14844 0.92188-0.38672 0.23438-0.23438 0.38672-0.56641 0.38672-0.92188v-5.3242c0-0.35938-0.14844-0.6875-0.38672-0.92188-0.23438-0.23438-0.56641-0.38672-0.92188-0.38672zm-23.512-3h5.3242c1.1875 0 2.2656 0.48438 3.043 1.2656 0.78125 0.78125 1.2656 1.8594 1.2656 3.043v5.3242c0 1.1875-0.48437 2.2656-1.2656 3.043-0.78125 0.78125-1.8594 1.2656-3.043 1.2656h-5.3242c-1.1875 0-2.2656-0.48438-3.043-1.2656-0.78125-0.78125-1.2656-1.8594-1.2656-3.043v-5.3242c0-1.1875 0.48438-2.2656 1.2656-3.043 0.78125-0.78125 1.8594-1.2656 3.043-1.2656zm5.3242 3h-5.3242c-0.35938 0-0.6875 0.14844-0.92188 0.38672-0.23438 0.23438-0.38672 0.56641-0.38672 0.92188v5.3242c0 0.35938 0.14844 0.6875 0.38672 0.92188 0.23438 0.23437 0.56641 0.38672 0.92188 0.38672h5.3242c0.35938 0 0.6875-0.14844 0.92188-0.38672 0.23438-0.23438 0.38672-0.56641 0.38672-0.92188v-5.3242c0-0.35938-0.14844-0.6875-0.38672-0.92188-0.23438-0.23438-0.56641-0.38672-0.92188-0.38672zm-23.512-3h5.3242c1.1875 0 2.2656 0.48438 3.043 1.2656 0.77734 0.77734 1.2656 1.8594 1.2656 3.043v5.3242c0 1.1875-0.48437 2.2656-1.2656 3.043-0.78125 0.78125-1.8594 1.2656-3.043 1.2656h-5.3242c-1.1875 0-2.2656-0.48438-3.043-1.2656-0.78125-0.78125-1.2656-1.8594-1.2656-3.043v-5.3242c0-1.1875 0.48438-2.2656 1.2656-3.043 0.78125-0.78125 1.8594-1.2656 3.043-1.2656zm5.3242 3h-5.3242c-0.35938 0-0.6875 0.14844-0.92188 0.38672-0.23438 0.23438-0.38672 0.56641-0.38672 0.92188v5.3242c0 0.35938 0.14844 0.6875 0.38672 0.92188 0.23438 0.23437 0.56641 0.38672 0.92188 0.38672h5.3242c0.35938 0 0.6875-0.14844 0.92188-0.38672 0.23438-0.23438 0.38672-0.56641 0.38672-0.92188v-5.3242c0-0.35938-0.14844-0.6875-0.38672-0.92188-0.23438-0.23438-0.56641-0.38672-0.92188-0.38672zm49.234-18.82h5.3242c1.1875 0 2.2656 0.48437 3.043 1.2656 0.78125 0.78125 1.2656 1.8594 1.2656 3.043v5.3242c0 1.1875-0.48438 2.2656-1.2656 3.043-0.78125 0.78125-1.8594 1.2656-3.043 1.2656h-5.3242c-1.1875 0-2.2656-0.48438-3.043-1.2656-0.78125-0.78125-1.2656-1.8594-1.2656-3.043v-5.3242c0-1.1875 0.48438-2.2656 1.2656-3.043 0.78125-0.78125 1.8594-1.2656 3.043-1.2656zm5.3242 3h-5.3242c-0.35938 0-0.6875 0.14844-0.92188 0.38672-0.23438 0.23438-0.38672 0.56641-0.38672 0.92188v5.3242c0 0.35938 0.14844 0.6875 0.38672 0.92188 0.23438 0.23438 0.56641 0.38672 0.92188 0.38672h5.3242c0.35938 0 0.6875-0.14844 0.92188-0.38672 0.23437-0.23438 0.38672-0.56641 0.38672-0.92188v-5.3242c0-0.35938-0.14844-0.6875-0.38672-0.92188-0.23438-0.23438-0.56641-0.38672-0.92188-0.38672zm-23.512-3h5.3242c1.1875 0 2.2656 0.48437 3.043 1.2656 0.78125 0.78125 1.2656 1.8594 1.2656 3.043v5.3242c0 1.1875-0.48438 2.2656-1.2656 3.043-0.78125 0.78125-1.8594 1.2656-3.043 1.2656h-5.3242c-1.1875 0-2.2656-0.48438-3.043-1.2656-0.78125-0.78125-1.2656-1.8594-1.2656-3.043v-5.3242c0-1.1875 0.48438-2.2656 1.2656-3.043 0.78125-0.78125 1.8594-1.2656 3.043-1.2656zm5.3242 3h-5.3242c-0.35938 0-0.6875 0.14844-0.92188 0.38672-0.23438 0.23438-0.38672 0.56641-0.38672 0.92188v5.3242c0 0.35938 0.14844 0.6875 0.38672 0.92188 0.23438 0.23438 0.56641 0.38672 0.92188 0.38672h5.3242c0.35938 0 0.6875-0.14844 0.92188-0.38672 0.23437-0.23438 0.38672-0.56641 0.38672-0.92188v-5.3242c0-0.35938-0.14844-0.6875-0.38672-0.92188-0.23438-0.23438-0.56641-0.38672-0.92188-0.38672zm-23.512-3h5.3242c1.1875 0 2.2656 0.48437 3.043 1.2656 0.78125 0.78125 1.2656 1.8594 1.2656 3.043v5.3242c0 1.1875-0.48438 2.2656-1.2656 3.043-0.78125 0.78125-1.8594 1.2656-3.043 1.2656h-5.3242c-1.1875 0-2.2656-0.48438-3.043-1.2656-0.78125-0.78125-1.2656-1.8594-1.2656-3.043v-5.3242c0-1.1875 0.48438-2.2656 1.2656-3.043 0.78125-0.78125 1.8594-1.2656 3.043-1.2656zm5.3242 3h-5.3242c-0.35938 0-0.6875 0.14844-0.92188 0.38672-0.23438 0.23438-0.38672 0.56641-0.38672 0.92188v5.3242c0 0.35938 0.14844 0.6875 0.38672 0.92188 0.23438 0.23438 0.56641 0.38672 0.92188 0.38672h5.3242c0.35938 0 0.6875-0.14844 0.92188-0.38672 0.23437-0.23438 0.38672-0.56641 0.38672-0.92188v-5.3242c0-0.35938-0.14844-0.6875-0.38672-0.92188-0.23438-0.23438-0.56641-0.38672-0.92188-0.38672zm-20.848-3c1.9219 0 3.6641 0.78516 4.9258 2.0469 1.2617 1.2617 2.0469 3.0078 2.0469 4.9258 0 1.918-0.78516 3.6641-2.0469 4.9258-1.2617 1.2617-3.0039 2.0469-4.9219 2.0469-1.9219 0-3.6641-0.78516-4.9258-2.0469s-2.0469-3.0039-2.0469-4.9219 0.78516-3.6641 2.0469-4.9258l0.09375-0.085938c1.2539-1.2109 2.9609-1.9609 4.832-1.9609zm0.003906 3c-1.0625 0-2.0273 0.41797-2.7422 1.0977l-0.0625 0.070312c-0.71875 0.71875-1.168 1.7109-1.168 2.8047 0 1.0898 0.44922 2.0859 1.168 2.8047s1.7109 1.168 2.8047 1.168 2.0859-0.44922 2.8047-1.168 1.168-1.7109 1.168-2.8008-0.44922-2.0859-1.168-2.8047-1.7109-1.168-2.8008-1.168zm51.254-16.965h-4.5391c0 1.1602-0.47656 2.2148-1.2383 2.9766-0.76172 0.76172-1.8203 1.2383-2.9805 1.2383s-2.2188-0.47656-2.9805-1.2383c-0.76172-0.76172-1.2383-1.8164-1.2383-2.9766h-21.449c0 1.1602-0.47656 2.2148-1.2383 2.9766l-0.10156 0.09375c-0.75391 0.70703-1.7695 1.1445-2.875 1.1445-1.1641 0-2.2188-0.47656-2.9805-1.2383-0.76172-0.76172-1.2383-1.8164-1.2383-2.9766h-4.5391c0 1.1602-0.47656 2.2148-1.2383 2.9766l-0.10156 0.09375c-0.75391 0.70703-1.7695 1.1445-2.875 1.1445-1.1602 0-2.2188-0.47656-2.9805-1.2383-0.76172-0.76172-1.2383-1.8164-1.2383-2.9766h-4.6367c-0.53516 0-1.0234 0.21875-1.3711 0.57031-0.35156 0.35156-0.57031 0.83984-0.57031 1.3711v4.8164h77.43v-4.8164c0-0.53516-0.21875-1.0234-0.57031-1.375-0.34766-0.34766-0.83984-0.56641-1.375-0.56641h-4.6406c0 1.1602-0.47656 2.2148-1.2383 2.9766-0.76172 0.76172-1.8203 1.2383-2.9805 1.2383-1.1602 0-2.2188-0.47656-2.9805-1.2383-0.76172-0.76172-1.2383-1.8164-1.2383-2.9766zm-7.5391-1.4609v-1.5352c0-0.33594-0.13672-0.64062-0.35156-0.85938-0.22266-0.22266-0.52734-0.35938-0.86328-0.35938-0.33203 0-0.63672 0.13672-0.85937 0.35938-0.22266 0.21484-0.35938 0.52344-0.35938 0.85938v2.9922c0 0.33203 0.13672 0.63672 0.35938 0.85937 0.22266 0.22266 0.52734 0.35938 0.85937 0.35938 0.33203 0 0.63672-0.13672 0.85938-0.35938 0.22266-0.22266 0.35937-0.52734 0.35937-0.85937v-1.457zm-31.102-2.7539c-0.33594 0-0.64062 0.13672-0.85938 0.35938-0.22266 0.21484-0.35938 0.52344-0.35938 0.85938v2.9922c0 0.33203 0.13672 0.63672 0.35938 0.85937 0.22266 0.22266 0.52734 0.35938 0.85938 0.35938 0.30859 0 0.58984-0.11328 0.80469-0.30078l0.054688-0.058594c0.22266-0.22266 0.35938-0.52734 0.35938-0.85937v-2.9922c0-0.30859-0.11719-0.59375-0.30469-0.80859l-0.050781-0.050781c-0.22266-0.22266-0.52734-0.35938-0.85938-0.35938zm-12.973 0c-0.33594 0-0.64063 0.13672-0.85938 0.35938-0.22266 0.22266-0.35937 0.52734-0.35937 0.85938v2.9922c0 0.33203 0.13672 0.63672 0.35937 0.85937 0.22266 0.22266 0.52734 0.35938 0.85938 0.35938 0.30859 0 0.58984-0.11328 0.80469-0.30078l0.054687-0.058594c0.22266-0.22266 0.35938-0.52734 0.35938-0.85937v-2.9922c0-0.30859-0.11719-0.59375-0.30469-0.80859l-0.050781-0.050781c-0.22266-0.22266-0.52734-0.35938-0.85938-0.35938z"/>
<text x="0.0" y="117.5" font-size="5.0" font-weight="bold" font-family="Arbeit Regular, Helvetica, Arial-Unicode, Arial, Sans-serif" fill="#000000">Created by Lula Sugiantoro</text><text x="0.0" y="122.5" font-size="5.0" font-weight="bold" font-family="Arbeit Regular, Helvetica, Arial-Unicode, Arial, Sans-serif" fill="#000000">from Noun Project</text></svg>