<svg xmlns:dc="http://purl.org/dc/elements/1.1/" xmlns:cc="http://creativecommons.org/ns#" xmlns:rdf="http://www.w3.org/1999/02/22-rdf-syntax-ns#" xmlns:svg="http://www.w3.org/2000/svg" xmlns="http://www.w3.org/2000/svg" xmlns:sodipodi="http://sodipodi.sourceforge.net/DTD/sodipodi-0.dtd" xmlns:inkscape="http://www.inkscape.org/namespaces/inkscape" version="1.1" x="0px" y="0px" viewBox="0 0 100 125"><g transform="translate(0,-952.36218)"><path style="font-size:medium;font-style:normal;font-variant:normal;font-weight:normal;font-stretch:normal;text-indent:0;text-align:start;text-decoration:none;line-height:normal;letter-spacing:normal;word-spacing:normal;text-transform:none;direction:ltr;block-progression:tb;writing-mode:lr-tb;text-anchor:start;baseline-shift:baseline;opacity:1;color:#000000;fill:#000000;fill-opacity:1;stroke:none;stroke-width:3.99999951999999980;marker:none;visibility:visible;display:inline;overflow:visible;enable-background:accumulate;font-family:Sans;-inkscape-font-specification:Sans" d="M 77.8125 11 A 2.0001999 2.0001999 0 0 0 76 13 L 76 87 A 2.0001999 2.0001999 0 0 0 78 89 L 92 89 A 2.0001999 2.0001999 0 0 0 94 87 L 94 21 A 2.0001999 2.0001999 0 1 0 90 21 L 90 85 L 80 85 L 80 15 L 92 15 A 2.0001999 2.0001999 0 1 0 92 11 L 78 11 A 2.0001999 2.0001999 0 0 0 77.8125 11 z M 42.8125 31 A 2.0001999 2.0001999 0 0 0 41 33 L 41 87 A 2.0001999 2.0001999 0 0 0 43 89 L 57 89 A 2.0001999 2.0001999 0 0 0 59 87 L 59 33 A 2.0001999 2.0001999 0 0 0 57 31 L 43 31 A 2.0001999 2.0001999 0 0 0 42.8125 31 z M 45 35 L 55 35 L 55 85 L 45 85 L 45 35 z M 7.8125 51 A 2.0001998 2.0001998 0 0 0 6 53 L 6 87 A 2.0001998 2.0001998 0 0 0 8 89 L 22 89 A 2.0001998 2.0001998 0 0 0 24 87 L 24 53 A 2.0001998 2.0001998 0 0 0 22 51 L 8 51 A 2.0001998 2.0001998 0 0 0 7.8125 51 z M 10 55 L 20 55 L 20 85 L 10 85 L 10 55 z " transform="translate(0,952.36218)"/></g><text x="0" y="115" fill="#000000" font-size="5px" font-weight="bold" font-family="'Helvetica Neue', Helvetica, Arial-Unicode, Arial, Sans-serif">Created by hans draiman</text><text x="0" y="120" fill="#000000" font-size="5px" font-weight="bold" font-family="'Helvetica Neue', Helvetica, Arial-Unicode, Arial, Sans-serif">from the Noun Project</text></svg>